<svg xmlns="http://www.w3.org/2000/svg" viewBox="0 0 1600 1600" width="1600" height="1600">
  <style>
    .s1,.s2,.s3{fill:none;stroke:#f1d28c;stroke-linecap:round;stroke-linejoin:round}
    .s1{stroke-width:12}
    .s2{stroke-width:5;opacity:.9}
    .s3{stroke-width:3.6;opacity:.55}
    .f{fill:#f1d28c}
    .fl{fill:none;stroke:#f1d28c;stroke-width:4.6;opacity:.88}
    .b{fill:#ffb257}
  </style>
  <defs>
    <g id="edge">
      <path class="s1" d="M 0.00 58.00 C 44.44 58.00 88.89 68.68 133.33 85.00 C 177.78 101.32 222.22 122.68 266.67 139.00 C 311.11 155.32 355.56 166.00 400.00 166.00 C 444.44 166.00 488.89 155.32 533.33 139.00 C 577.78 122.68 622.22 101.32 666.67 85.00 C 711.11 68.68 755.56 58.00 800.00 58.00"/>
      <path class="s3" d="M 0.00 120.00 C 44.44 120.00 88.89 125.93 133.33 135.00 C 177.78 144.07 222.22 155.93 266.67 165.00 C 311.11 174.07 355.56 180.00 400.00 180.00 C 444.44 180.00 488.89 174.07 533.33 165.00 C 577.78 155.93 622.22 144.07 666.67 135.00 C 711.11 125.93 755.56 120.00 800.00 120.00"/>
      <path class="s2" d="M 400.00 166.00 L 400.00 178.00"/>
      <path class="f"  d="M 400.00 173.40 C 391.20 173.40 397.01 196.28 400.00 202.00 C 402.99 196.28 408.80 173.40 400.00 173.40 Z"/>
      <path class="fl" d="M 391.00 170.00 C 378.11 168.62 366.87 178.86 362.17 188.02 C 372.46 187.81 386.59 182.19 391.00 170.00 Z"/>
      <path class="fl" d="M 409.00 170.00 C 413.41 182.19 427.54 187.81 437.83 188.02 C 433.13 178.86 421.89 168.62 409.00 170.00 Z"/>
      <path class="s2" d="M 192.96 147.24 L 190.73 145.28 L 189.00 142.97 L 187.79 140.44 L 187.15 137.78 L 187.05 135.13 L 187.48 132.60 L 188.38 130.27 L 189.70 128.24 L 191.34 126.58 L 193.23 125.33 L 195.25 124.52 L 197.33 124.16 L 199.35 124.22 L 201.24 124.68 L 202.93 125.49 L 204.35 126.58 L 205.47 127.89 L 206.25 129.33 L 206.68 130.83 L 206.79 132.31 L 206.59 133.70 L 206.13 134.95 L 205.44 136.00 L 204.60 136.83 L 203.66 137.41 L 202.68 137.74 L 201.72 137.83 L 200.84 137.71 L 200.08 137.40 L 199.48 136.95"/>
      <circle class="b" cx="200.00" cy="112.00" r="5"/>
      <path class="s2" d="M 607.04 147.24 L 604.17 147.99 L 601.29 148.14 L 598.51 147.72 L 595.95 146.77 L 593.70 145.37 L 591.83 143.60 L 590.41 141.54 L 589.47 139.32 L 589.01 137.03 L 589.03 134.77 L 589.49 132.63 L 590.34 130.71 L 591.53 129.07 L 592.97 127.76 L 594.58 126.81 L 596.28 126.24 L 597.99 126.05 L 599.62 126.21 L 601.11 126.68 L 602.39 127.42 L 603.44 128.37 L 604.21 129.45 L 604.70 130.61 L 604.92 131.77 L 604.87 132.88 L 604.60 133.87 L 604.14 134.71 L 603.54 135.37 L 602.86 135.83 L 602.16 136.08"/>
      <circle class="b" cx="600.00" cy="112.00" r="5"/>
    </g>
    <g id="corner">
      <path class="s1" d="M 58.00 400 C 58.00 232.00 232.00 58.00 400 58.00"/>
      <path class="s3" d="M 120.00 400 C 120.00 245.44 245.44 120.00 400 120.00"/>
      <path class="s2" d="M 132 132 C 152 156 172 178 192 196"/>
      <path class="f" d="M 180.77 196.80 C 181.83 217.11 233.93 200.94 246.77 193.34 C 233.21 187.13 179.70 176.49 180.77 196.80 Z"/>
      <path class="f" d="M 182.85 182.85 C 165.31 200.38 222.48 234.40 239.84 239.84 C 234.40 222.48 200.38 165.31 182.85 182.85 Z"/>
      <path class="f" d="M 196.80 180.77 C 176.49 179.70 187.13 233.21 193.34 246.77 C 200.94 233.93 217.11 181.83 196.80 180.77 Z"/>
      <circle class="b" cx="196" cy="196" r="8"/>
      <path class="fl" d="M 178.00 178.00 C 202.46 192.33 236.32 184.51 255.81 172.56 C 234.84 163.44 200.23 160.41 178.00 178.00 Z"/>
      <path class="fl" d="M 178.00 178.00 C 160.41 200.23 163.44 234.84 172.56 255.81 C 184.51 236.32 192.33 202.46 178.00 178.00 Z"/>
      <path class="s2" d="M 146.43 235.79 L 144.19 232.79 L 142.68 229.47 L 141.93 226.01 L 141.93 222.56 L 142.64 219.29 L 143.98 216.34 L 145.86 213.81 L 148.16 211.81 L 150.75 210.40 L 153.49 209.60 L 156.23 209.40 L 158.85 209.79 L 161.24 210.70 L 163.30 212.04 L 164.94 213.73 L 166.13 215.65 L 166.84 217.69 L 167.08 219.74 L 166.87 221.69 L 166.27 223.46 L 165.34 224.97 L 164.17 226.16 L 162.83 227.01 L 161.43 227.50 L 160.05 227.64 L 158.77 227.47 L 157.65 227.03 L 156.74 226.38 L 156.08 225.60 L 155.69 224.76"/>
      <path class="s2" d="M 235.79 146.43 L 237.47 149.77 L 238.38 153.30 L 238.52 156.84 L 237.92 160.24 L 236.66 163.34 L 234.82 166.01 L 232.53 168.17 L 229.92 169.74 L 227.12 170.68 L 224.29 171.00 L 221.56 170.71 L 219.04 169.88 L 216.84 168.57 L 215.06 166.89 L 213.73 164.94 L 212.89 162.84 L 212.54 160.71 L 212.66 158.65 L 213.21 156.76 L 214.11 155.13 L 215.28 153.80 L 216.65 152.83 L 218.11 152.23 L 219.57 151.99 L 220.96 152.09 L 222.19 152.48 L 223.22 153.11 L 224.00 153.90 L 224.51 154.78 L 224.76 155.69"/>
    </g>
  </defs>
  <use href="#corner"/>
  <use href="#corner" transform="translate(1600,0) scale(-1,1)"/>
  <use href="#corner" transform="translate(0,1600) scale(1,-1)"/>
  <use href="#corner" transform="translate(1600,1600) scale(-1,-1)"/>
  <use href="#edge" transform="translate(400,0)"/>
  <use href="#edge" transform="translate(400,1600) scale(1,-1)"/>
  <use href="#edge" transform="translate(0,1200) rotate(-90)"/>
  <use href="#edge" transform="translate(1600,1200) rotate(-90) scale(1,-1)"/>
</svg>
